<?xml version="1.0" encoding="utf-8"?>
<!-- Generator: Adobe Illustrator 22.1.0, SVG Export Plug-In . SVG Version: 6.00 Build 0)  -->
<svg version="1.1" id="Logo" xmlns="http://www.w3.org/2000/svg" xmlns:xlink="http://www.w3.org/1999/xlink" x="0px" y="0px"
	 viewBox="0 0 332 232" style="enable-background:new 0 0 332 232;" xml:space="preserve">
<style type="text/css">
	.st0{fill:#1471C2;}
	.st1{fill:#0065BD;}
	.st2{fill:#3686CB;}
	.st3{fill:#FFFFFF;}
	.st4{fill:#1E7DC4;}
</style>
<g id="edinburgh">
	<path class="st0" d="M46.3,200c-4.2,0-7.7-1.4-10.3-4.2c-2.7-2.8-4-6.5-4-11.2v-1c0-3.1,0.6-5.9,1.8-8.3c1.2-2.4,2.8-4.3,5-5.7
		c2.1-1.4,4.4-2.1,6.9-2.1c4.1,0,7.2,1.3,9.5,4c2.3,2.7,3.4,6.5,3.4,11.5v2.2H37.3c0.1,3.1,1,5.6,2.7,7.5c1.7,1.9,3.9,2.8,6.6,2.8
		c1.9,0,3.5-0.4,4.8-1.2c1.3-0.8,2.5-1.8,3.4-3.1l3.3,2.5C55.5,197.9,51.6,200,46.3,200z M45.7,171.9c-2.2,0-4,0.8-5.4,2.4
		c-1.5,1.6-2.4,3.8-2.7,6.6h15.7v-0.4c-0.2-2.7-0.9-4.8-2.2-6.3C49.7,172.7,47.9,171.9,45.7,171.9z"/>
	<path class="st0" d="M64.9,183.5c0-4.8,1.1-8.7,3.4-11.6c2.3-2.9,5.2-4.4,8.9-4.4c3.7,0,6.6,1.3,8.7,3.8V155h5.3v44.4h-4.9
		l-0.3-3.4c-2.1,2.6-5.1,3.9-8.9,3.9c-3.6,0-6.6-1.5-8.9-4.4c-2.3-3-3.4-6.8-3.4-11.6V183.5z M70.2,184.1c0,3.5,0.7,6.3,2.2,8.3
		c1.5,2,3.5,3,6.1,3c3.4,0,5.9-1.5,7.4-4.6v-14.4c-1.6-2.9-4.1-4.4-7.4-4.4c-2.6,0-4.7,1-6.1,3C71,177.1,70.2,180.1,70.2,184.1z"/>
	<path class="st0" d="M101.1,159.8c0-0.9,0.3-1.6,0.8-2.2c0.5-0.6,1.3-0.9,2.4-0.9s1.8,0.3,2.4,0.9c0.5,0.6,0.8,1.3,0.8,2.2
		s-0.3,1.6-0.8,2.2c-0.5,0.6-1.3,0.9-2.4,0.9s-1.8-0.3-2.4-0.9C101.3,161.4,101.1,160.7,101.1,159.8z M106.8,199.4h-5.3v-31.3h5.3
		V199.4z"/>
	<path class="st0" d="M121.9,168.1l0.2,3.9c2.4-3,5.5-4.5,9.4-4.5c6.6,0,9.9,3.7,10,11.2v20.7h-5.3v-20.7c0-2.3-0.5-3.9-1.5-5
		c-1-1.1-2.6-1.6-4.7-1.6c-1.7,0-3.3,0.5-4.6,1.4c-1.3,0.9-2.3,2.1-3.1,3.6v22.3h-5.3v-31.3H121.9z"/>
	<path class="st0" d="M177.5,184.1c0,4.8-1.1,8.6-3.3,11.5c-2.2,2.9-5.1,4.3-8.8,4.3c-3.9,0-7-1.4-9.2-4.2l-0.3,3.6H151V155h5.3
		v16.6c2.2-2.7,5.1-4,8.9-4c3.8,0,6.8,1.4,8.9,4.3c2.2,2.9,3.3,6.8,3.3,11.8V184.1z M172.1,183.5c0-3.6-0.7-6.5-2.1-8.4
		c-1.4-2-3.4-3-6.1-3c-3.5,0-6.1,1.6-7.6,4.9v13.5c1.6,3.3,4.2,4.9,7.7,4.9c2.6,0,4.6-1,6-3C171.4,190.5,172.1,187.5,172.1,183.5z"
		/>
	<path class="st0" d="M205,196.3c-2.1,2.4-5.1,3.7-9.2,3.7c-3.3,0-5.9-1-7.6-2.9c-1.7-1.9-2.6-4.8-2.6-8.6v-20.3h5.3v20.2
		c0,4.7,1.9,7.1,5.8,7.1c4.1,0,6.8-1.5,8.1-4.6v-22.7h5.3v31.3h-5.1L205,196.3z"/>
	<path class="st0" d="M234.9,172.9c-0.8-0.1-1.7-0.2-2.6-0.2c-3.5,0-5.9,1.5-7.1,4.5v22.2h-5.3v-31.3h5.2l0.1,3.6
		c1.8-2.8,4.2-4.2,7.5-4.2c1,0,1.8,0.1,2.4,0.4V172.9z"/>
	<path class="st0" d="M239.5,183.5c0-4.9,1.1-8.7,3.4-11.6c2.3-2.9,5.2-4.3,9-4.3c3.8,0,6.8,1.3,8.9,4l0.3-3.5h4.9v30.5
		c0,4-1.2,7.2-3.6,9.6c-2.4,2.3-5.6,3.5-9.7,3.5c-2.3,0-4.5-0.5-6.6-1.4c-2.2-1-3.8-2.3-4.9-4l2.8-3.2c2.3,2.8,5.1,4.2,8.4,4.2
		c2.6,0,4.6-0.7,6.1-2.2c1.5-1.5,2.2-3.5,2.2-6.2v-2.7c-2.1,2.5-5.1,3.7-8.8,3.7c-3.7,0-6.6-1.5-8.9-4.4
		C240.6,192.6,239.5,188.6,239.5,183.5z M244.8,184.1c0,3.5,0.7,6.3,2.2,8.3c1.4,2,3.5,3,6.1,3c3.4,0,5.8-1.5,7.4-4.6v-14.3
		c-1.6-3-4.1-4.5-7.4-4.5c-2.6,0-4.6,1-6.1,3C245.6,177.1,244.8,180.1,244.8,184.1z"/>
	<path class="st0" d="M280.8,171.9c2.4-2.9,5.5-4.4,9.2-4.4c6.6,0,9.9,3.7,10,11.2v20.7h-5.3v-20.7c0-2.3-0.5-3.9-1.5-5
		c-1-1.1-2.6-1.6-4.7-1.6c-1.7,0-3.3,0.5-4.6,1.4c-1.3,0.9-2.3,2.1-3.1,3.6v22.3h-5.3V155h5.3V171.9z"/>
</g>
<g id="C_x2B__x2B_">
	<g id="Box">
		<path class="st1" d="M126,32c-8.8,0-16,7.2-16,16v75c0,8.8,7.2,16,16,16h64.7l-45-107H126z"/>
		<polyline class="st2" points="278,32 145,32 175.8,105.4 		"/>
		<path class="st0" d="M175.8,105.4L190,139h94c8.8,0,16-7.2,16-16V48c0-8.8-7.2-16-16-16h-6"/>
	</g>
	<g id="_x2B__x2B_">
		<path class="st3" d="M254.9,78.1h28.7v12.4h-28.7V123h-13.2V90.5H213V78.1h28.7V48h13.2V78.1z"/>
		<path class="st3" d="M167.9,78.1h28.7v12.4h-28.7V123h-13.2V90.5H126V78.1h28.7V48h13.2V78.1z"/>
	</g>
	<g id="C">
		<path class="st1" d="M52.2,66.8C55,62.9,59.1,61,64.3,61c4.1,0,7.5,1.3,10.1,4c2.7,2.7,4.1,6.1,4.2,10.2H94
			c-0.3-8.2-3.1-14.7-8.5-19.8S73.1,48,64.5,48c-10.2,0-18.2,3.3-24.1,9.9c-1.2,1.4-2.3,2.9-3.3,4.5l11.8,11.7
			C49.6,71.1,50.7,68.7,52.2,66.8z"/>
		<path class="st1" d="M89.8,110.3c2.6-3.9,4-8.1,4.2-12.6H78.7c-0.1,1.7-0.5,3.2-1.1,4.6L88,112.7
			C88.6,111.9,89.2,111.1,89.8,110.3z"/>
		<path class="st4" d="M77.6,102.4c-0.7,1.5-1.8,2.9-3.1,4.1c-2.7,2.4-6,3.5-10.1,3.5c-5.3,0-9.4-1.9-12.3-5.8
			c-2.8-3.9-4.2-9.7-4.2-17.5v-2.6c0-3.8,0.4-7.1,1.1-10L37.1,62.4c-3.7,6-5.5,13.3-5.5,21.9V86c0,11.5,3,20.6,8.9,27.1
			c5.9,6.6,13.9,9.8,24.1,9.8c5.2,0,10.1-1.1,14.6-3.4c3.6-1.8,6.5-4.1,8.9-6.9L77.6,102.4z"/>
	</g>
</g>
</svg>
