<?xml version="1.0" encoding="utf-8"?>
<!-- Generator: Adobe Illustrator 15.1.0, SVG Export Plug-In . SVG Version: 6.00 Build 0)  -->
<!DOCTYPE svg PUBLIC "-//W3C//DTD SVG 1.1//EN" "http://www.w3.org/Graphics/SVG/1.1/DTD/svg11.dtd">
<svg version="1.1" id="Layer_1" xmlns="http://www.w3.org/2000/svg" xmlns:xlink="http://www.w3.org/1999/xlink" x="0px" y="0px"
	 width="141.73px" height="141.73px" viewBox="0 0 141.73 141.73" enable-background="new 0 0 141.73 141.73" xml:space="preserve">
<circle fill="#CD220C" cx="70.865" cy="70.865" r="70.865"/>
<g>
	<path fill="#FEFFFF" d="M76.65,79.522l-3.983-3.094c-1.213-1.006-2.872-2.334-2.872-4.765c0-2.441,1.659-3.993,3.1-5.43
		c4.639-3.652,9.275-7.539,9.275-15.73c0-8.423-5.3-12.854-7.84-14.956h6.849l7.188-4.517H66.589
		c-5.976,0-14.588,1.414-20.893,6.619c-4.752,4.1-7.07,9.753-7.07,14.842c0,8.639,6.633,17.396,18.346,17.396
		c1.106,0,2.316-0.108,3.534-0.222c-0.547,1.331-1.1,2.439-1.1,4.32c0,3.431,1.763,5.535,3.317,7.527
		c-4.977,0.343-14.268,0.894-21.117,5.104c-6.523,3.879-8.508,9.524-8.508,13.51c0,8.202,7.731,15.842,23.762,15.842
		c19.01,0,29.074-10.519,29.074-20.932C85.936,87.386,81.515,83.62,76.65,79.522z M62.171,66.784
		c-9.51,0-13.818-12.294-13.818-19.712c0-2.889,0.547-5.87,2.428-8.199c1.773-2.218,4.861-3.657,7.744-3.657
		c9.168,0,13.922,12.404,13.922,20.382c0,1.996-0.219,5.533-2.762,8.091C67.908,65.462,64.934,66.784,62.171,66.784z M62.28,111.327
		c-11.826,0-19.452-5.657-19.452-13.523c0-7.863,7.071-10.523,9.504-11.404c4.64-1.562,10.611-1.779,11.607-1.779
		c1.104,0,1.657,0,2.537,0.111c8.407,5.982,12.057,8.965,12.057,14.629C78.533,106.219,72.895,111.327,62.28,111.327z"/>
	<polygon fill="#FEFFFF" points="104.564,66.615 104.564,55.54 99.094,55.54 99.094,66.615 88.037,66.615 88.037,72.146 
		99.094,72.146 99.094,83.289 104.564,83.289 104.564,72.146 115.677,72.146 115.677,66.615 	"/>
</g>
</svg>
