<?xml version="1.0" encoding="utf-8"?>
<!-- Generator: Adobe Illustrator 15.1.0, SVG Export Plug-In . SVG Version: 6.00 Build 0)  -->
<!DOCTYPE svg PUBLIC "-//W3C//DTD SVG 1.1//EN" "http://www.w3.org/Graphics/SVG/1.1/DTD/svg11.dtd">
<svg version="1.1" id="Layer_1" xmlns="http://www.w3.org/2000/svg" xmlns:xlink="http://www.w3.org/1999/xlink" x="0px" y="0px"
	 width="141.73px" height="141.73px" viewBox="0 0 141.73 141.73" enable-background="new 0 0 141.73 141.73" xml:space="preserve">
<circle fill="#EC1F41" cx="70.865" cy="70.865" r="70.865"/>
<path fill="#FFFFFF" d="M111.471,99.404c-1.074-6.862-13.783-1.57-14.566-9.089c-1.111-10.667,14.756-33.659,13.504-42.584
	c-1.125-8.035-6.541-9.719-11.254-9.801c-4.577-0.083-5.786,0.647-7.334,1.547c-0.893,0.517-2.176,1.542-3.956-0.151
	c-1.184-1.126-1.966-1.915-3.218-2.914c-0.637-0.51-1.652-1.152-3.354-1.403c-1.703-0.25-3.906,0-5.308,0.6
	c-1.403,0.602-2.504,1.653-3.656,2.654c-1.15,1.001-4.072,4.271-6.796,3.065c-1.181-0.521-5.18-2.52-8.066-3.769
	c-5.572-2.411-13.608,1.495-16.501,6.637c-4.306,7.65-12.807,37.708-14.095,41.673c-2.886,8.902,3.659,16.158,12.486,15.74
	c3.732-0.178,6.215-1.539,8.572-5.825c1.363-2.475,14.161-35.893,15.112-37.496c0.69-1.162,2.993-2.696,4.946-1.695
	c1.951,1.001,2.341,3.088,2.053,5.056c-0.468,3.18-9.493,23.566-9.84,25.874c-0.588,3.922,1.275,6.104,5.348,6.315
	c2.792,0.149,5.572-0.854,7.781-5.017c1.235-2.329,15.469-30.826,16.729-32.729c1.384-2.087,2.496-2.774,3.906-2.701
	c1.094,0.054,2.844,0.335,2.407,3.612c-0.431,3.214-11.874,24.125-13.074,29.247c-1.606,6.845,2.151,13.777,8.343,16.812
	C95.588,104.996,112.864,108.311,111.471,99.404"/>
</svg>
