<?xml version="1.0" encoding="utf-8"?>
<!-- Generator: Adobe Illustrator 15.1.0, SVG Export Plug-In . SVG Version: 6.00 Build 0)  -->
<!DOCTYPE svg PUBLIC "-//W3C//DTD SVG 1.1//EN" "http://www.w3.org/Graphics/SVG/1.1/DTD/svg11.dtd">
<svg version="1.1" id="Layer_1" xmlns="http://www.w3.org/2000/svg" xmlns:xlink="http://www.w3.org/1999/xlink" x="0px" y="0px"
	 width="141.73px" height="141.73px" viewBox="0 0 141.73 141.73" enable-background="new 0 0 141.73 141.73" xml:space="preserve">
<circle fill="#0D89CD" cx="70.865" cy="70.865" r="70.865"/>
<g id="layer1" transform="translate(-282.32053,-396.30734)">
	<path id="path5" fill="#FEFFFF" d="M397.038,443.773c-3.044,1.35-6.314,2.262-9.747,2.672
		c3.504-2.101,6.195-5.426,7.462-9.389c-3.279,1.944-6.911,3.356-10.777,4.118c-3.095-3.299-7.506-5.359-12.387-5.359
		c-9.372,0-16.972,7.598-16.972,16.97c0,1.331,0.15,2.625,0.44,3.867c-14.104-0.707-26.608-7.463-34.979-17.73
		c-1.461,2.506-2.298,5.421-2.298,8.531c0,5.888,2.996,11.082,7.549,14.126c-2.781-0.089-5.398-0.853-7.687-2.123
		c-0.002,0.07-0.002,0.142-0.002,0.213c0,8.222,5.85,15.081,13.613,16.641c-1.424,0.389-2.923,0.595-4.471,0.595
		c-1.094,0-2.156-0.106-3.193-0.304c2.16,6.742,8.427,11.647,15.854,11.784c-5.808,4.553-13.125,7.266-21.077,7.266
		c-1.37,0-2.721-0.08-4.048-0.237c7.511,4.815,16.431,7.625,26.014,7.625c31.214,0,48.285-25.858,48.285-48.285
		c0-0.735-0.017-1.468-0.049-2.196C391.886,450.165,394.763,447.176,397.038,443.773L397.038,443.773z"/>
</g>
</svg>
