<?xml version="1.0" encoding="utf-8"?>
<!-- Generator: Adobe Illustrator 15.1.0, SVG Export Plug-In . SVG Version: 6.00 Build 0)  -->
<!DOCTYPE svg PUBLIC "-//W3C//DTD SVG 1.1//EN" "http://www.w3.org/Graphics/SVG/1.1/DTD/svg11.dtd">
<svg version="1.1" id="Layer_1" xmlns="http://www.w3.org/2000/svg" xmlns:xlink="http://www.w3.org/1999/xlink" x="0px" y="0px"
	 width="141.73px" height="141.73px" viewBox="0 0 141.73 141.73" enable-background="new 0 0 141.73 141.73" xml:space="preserve">
<circle fill="#E42626" cx="70.865" cy="70.865" r="70.865"/>
<path fill="#FFFFFF" d="M108.379,55.562c0,0-0.75-5.271-3.042-7.586c-2.907-3.043-6.165-3.059-7.659-3.234
	c-10.701-0.775-26.769-0.679-26.769-0.679s-16.068-0.096-26.769,0.679c-1.494,0.176-4.752,0.191-7.659,3.234
	c-2.292,2.316-3.043,7.586-3.043,7.586s-0.767,6.181-0.91,12.371v5.798c0.144,6.189,0.91,12.369,0.91,12.369
	s0.743,5.271,3.043,7.588c2.907,3.043,6.732,2.947,8.433,3.266c6.014,0.576,25.316,0.711,25.987,0.719
	c0.008,0,16.083,0.023,26.785-0.75c1.493-0.176,4.751-0.191,7.658-3.234c2.292-2.316,3.043-7.588,3.043-7.588
	s0.767-6.189,0.814-12.369v-5.798C109.146,61.743,108.379,55.562,108.379,55.562z M63.099,81.572V60.01l20.556,10.782L63.099,81.572
	z"/>
</svg>
